# Blender v2.93.3 OBJ File: ''
# www.blender.org
mtllib EngineMascotPalette.mtl
o Icosphere
v 1.000000 0.000000 -1.000000
v 1.000000 -1.000000 -1.000000
v 1.000000 0.000000 1.000000
v 1.000000 -1.000000 1.000000
v -1.000000 0.000000 -1.000000
v -1.000000 -1.000000 -1.000000
v -1.000000 0.000000 1.000000
v -1.000000 -1.000000 1.000000
vt 0.238539 0.640625
vt 0.238539 0.640625
vt 0.238539 0.640625
vt 0.238539 0.640625
vt 0.238539 0.640625
vt 0.238539 0.640625
vt 0.238539 0.640625
vt 0.238539 0.640625
vn -1.0000 0.0000 0.0000
vn 0.0000 0.0000 -1.0000
vn 1.0000 0.0000 0.0000
vn 0.0000 0.0000 1.0000
vn 0.0000 -1.0000 0.0000
vn 0.0000 1.0000 0.0000
usemtl Material
s off
f 7/1/1 6/2/1 8/3/1
f 5/4/2 2/5/2 6/2/2
f 1/6/3 4/7/3 2/5/3
f 3/8/4 8/3/4 4/7/4
f 2/5/5 8/3/5 6/2/5
f 5/4/6 3/8/6 1/6/6
f 7/1/1 5/4/1 6/2/1
f 5/4/2 1/6/2 2/5/2
f 1/6/3 3/8/3 4/7/3
f 3/8/4 7/1/4 8/3/4
f 2/5/5 4/7/5 8/3/5
f 5/4/6 7/1/6 3/8/6
o Icosphere.001
v 0.210310 0.101835 -0.219788
v 0.518525 0.001059 -0.518558
v 0.204131 0.085211 0.228608
v 0.503593 -0.012163 0.493630
v -0.251422 0.091968 -0.201991
v -0.493639 -0.012163 -0.503601
v -0.244100 0.083253 0.239000
v -0.498616 -0.016571 0.498616
v -0.284224 0.094341 0.021772
v 0.351512 0.066825 -0.356625
v -0.023057 0.105943 -0.242287
v -0.684975 -0.016020 -0.000623
v 0.239632 0.101478 0.003909
v 0.699907 -0.003900 -0.014333
v -0.360392 0.045403 0.359003
v 0.000622 -0.016020 0.684974
v 0.337973 0.046655 0.350162
v 0.014310 -0.003900 -0.699930
v -0.021535 0.089876 0.267968
v -0.368512 0.052387 -0.335152
v -0.494637 0.048152 0.014986
v -0.008280 0.062951 -0.473982
v 0.474528 0.058931 -0.006019
v -0.011829 0.044132 0.482948
v -0.026548 0.113319 0.015743
vt 0.492445 0.597656
vt 0.492445 0.597656
vt 0.492445 0.597656
vt 0.492445 0.597656
vt 0.492445 0.597656
vt 0.492445 0.597656
vt 0.492445 0.597656
vt 0.492445 0.597656
vt 0.492445 0.597656
vt 0.492445 0.597656
vt 0.492445 0.597656
vt 0.492445 0.597656
vt 0.492445 0.597656
vt 0.492445 0.597656
vt 0.492445 0.597656
vt 0.492445 0.597656
vt 0.492445 0.597656
vt 0.492445 0.597656
vt 0.492445 0.597656
vt 0.492445 0.597656
vt 0.492445 0.597656
vt 0.492445 0.597656
vt 0.492445 0.597656
vt 0.492445 0.597656
vt 0.492445 0.597656
vn -0.3261 0.9373 0.1228
vn -0.2196 0.9711 0.0935
vn -0.2414 0.9675 -0.0753
vn -0.3264 0.9380 -0.1170
vn -0.1287 0.9474 -0.2932
vn -0.1047 0.9747 -0.1976
vn 0.0533 0.9792 -0.1956
vn 0.0947 0.9526 -0.2892
vn 0.2852 0.9539 -0.0932
vn 0.1971 0.9792 -0.0471
vn 0.1861 0.9769 0.1050
vn 0.2707 0.9551 0.1202
vn 0.0985 0.9555 0.2781
vn 0.0776 0.9718 0.2228
vn -0.0783 0.9700 0.2301
vn -0.1151 0.9452 0.3056
vn 0.0443 0.9990 -0.0042
vn -0.0662 0.9974 -0.0294
vn -0.0417 0.9948 0.0933
vn 0.0478 0.9957 0.0796
vn -0.2988 0.9462 0.1242
vn -0.2163 0.9722 0.0896
vn -0.2129 0.9762 -0.0416
vn -0.3105 0.9453 -0.1004
vn -0.1313 0.9544 -0.2682
vn -0.0929 0.9779 -0.1874
vn 0.0347 0.9830 -0.1802
vn 0.0795 0.9580 -0.2755
vn 0.2654 0.9615 -0.0715
vn 0.1773 0.9839 -0.0217
vn 0.1814 0.9784 0.0995
vn 0.2354 0.9640 0.1235
vn 0.0988 0.9554 0.2784
vn 0.0560 0.9771 0.2054
vn -0.0564 0.9760 0.2102
vn -0.0995 0.9520 0.2896
vn 0.0203 0.9994 -0.0283
vn -0.0739 0.9970 -0.0214
vn -0.0718 0.9954 0.0641
vn 0.0366 0.9951 0.0918
usemtl Material
s off
f 16/9/7 29/10/7 20/11/7
f 15/12/8 29/10/8 23/13/8
f 29/10/9 13/14/9 28/15/9
f 20/11/10 28/15/10 14/16/10
f 14/16/11 30/17/11 26/18/11
f 13/14/12 30/17/12 28/15/12
f 30/17/13 9/19/13 18/20/13
f 26/18/14 18/20/14 10/21/14
f 18/20/15 22/22/15 10/21/15
f 9/19/16 31/23/16 18/20/16
f 31/23/17 11/24/17 25/25/17
f 31/23/18 12/26/18 22/22/18
f 25/25/19 24/27/19 12/26/19
f 11/24/20 32/28/20 25/25/20
f 32/28/21 15/12/21 23/13/21
f 24/27/22 23/13/22 16/9/22
f 9/19/23 33/29/23 21/30/23
f 13/14/24 33/29/24 19/31/24
f 33/29/25 15/12/25 27/32/25
f 33/29/26 11/24/26 21/30/26
f 16/9/27 23/13/27 29/10/27
f 15/12/28 17/33/28 29/10/28
f 29/10/29 17/33/29 13/14/29
f 20/11/30 29/10/30 28/15/30
f 14/16/31 28/15/31 30/17/31
f 13/14/32 19/31/32 30/17/32
f 30/17/33 19/31/33 9/19/33
f 26/18/34 30/17/34 18/20/34
f 18/20/35 31/23/35 22/22/35
f 9/19/36 21/30/36 31/23/36
f 31/23/37 21/30/37 11/24/37
f 31/23/38 25/25/38 12/26/38
f 25/25/39 32/28/39 24/27/39
f 11/24/40 27/32/40 32/28/40
f 32/28/41 27/32/41 15/12/41
f 24/27/42 32/28/42 23/13/42
f 9/19/43 19/31/43 33/29/43
f 13/14/44 17/33/44 33/29/44
f 33/29/45 17/33/45 15/12/45
f 33/29/46 27/32/46 11/24/46
o Cylinder
v -0.000000 0.088921 -0.056332
v 0.159537 0.657525 -0.037254
v 0.048785 0.088921 -0.028166
v 0.173925 0.649669 -0.022150
v 0.048785 0.088921 0.028166
v 0.171038 0.654307 -0.000538
v -0.000000 0.088921 0.056332
v 0.153762 0.666801 0.005969
v -0.048785 0.088921 0.028166
v 0.139373 0.674657 -0.009136
v -0.048785 0.088921 -0.028166
v 0.142260 0.670019 -0.030747
v -0.000000 0.145293 -0.043740
v 0.037880 0.145293 -0.021870
v 0.037880 0.145293 0.021870
v -0.000000 0.145293 0.043740
v -0.037880 0.145293 0.021870
v -0.037880 0.145293 -0.021870
v 0.035960 0.434290 -0.028805
v 0.058936 0.428472 -0.012098
v 0.056975 0.431177 0.016707
v 0.032037 0.439700 0.028805
v 0.009061 0.445518 0.012098
v 0.011022 0.442813 -0.016707
vt 0.844143 0.101949
vt 0.844143 0.101949
vt 0.844143 0.101949
vt 0.844143 0.101949
vt 0.844143 0.101949
vt 0.844143 0.101949
vt 0.844143 0.101949
vt 0.844143 0.101949
vt 0.844143 0.101949
vt 0.844143 0.101949
vt 0.844143 0.101949
vt 0.844143 0.101949
vt 0.844143 0.101949
vt 0.844143 0.101949
vt 0.844143 0.101949
vt 0.844143 0.101949
vt 0.844143 0.101949
vt 0.844143 0.101949
vt 0.844143 0.101949
vt 0.844143 0.101949
vt 0.844143 0.101949
vt 0.844143 0.101949
vt 0.844143 0.101949
vt 0.844143 0.101949
vn 0.5063 -0.3107 -0.8045
vn 0.8845 -0.4551 0.1030
vn 0.3990 -0.1225 0.9087
vn -0.4903 0.3527 0.7970
vn 0.5573 0.8240 -0.1024
vn -0.8639 0.4925 -0.1051
vn -0.3840 0.1657 -0.9083
vn 0.0000 -1.0000 0.0000
vn -0.4909 0.1899 -0.8503
vn -0.9818 0.1899 0.0000
vn -0.4909 0.1899 0.8503
vn 0.4909 0.1899 0.8503
vn 0.9818 0.1899 0.0000
vn 0.4909 0.1899 -0.8503
vn -0.4972 0.1064 -0.8611
vn -0.9868 0.1622 0.0000
vn -0.4976 0.0979 0.8619
vn 0.4999 -0.0178 0.8659
vn 0.9972 -0.0742 0.0000
vn 0.4999 -0.0175 -0.8659
vn 0.5871 -0.3386 -0.7353
vn 0.8770 -0.4321 0.2099
vn 0.3002 -0.0800 0.9505
vn -0.5650 0.3766 0.7341
vn -0.8574 0.4677 -0.2149
vn -0.2753 0.1163 -0.9543
vn -0.4117 0.0834 -0.9075
vn -0.9851 0.1514 -0.0813
vn -0.5650 0.1149 0.8170
vn 0.4360 -0.0018 0.9000
vn 0.9951 -0.0651 0.0739
vn 0.5855 -0.0156 -0.8106
usemtl Material
s off
f 35/34/47 53/35/47 52/36/47
f 37/37/48 54/38/48 53/35/48
f 54/38/49 41/39/49 55/40/49
f 55/40/50 43/41/50 56/42/50
f 43/41/51 41/39/51 39/43/51
f 56/42/52 45/44/52 57/45/52
f 45/44/53 52/36/53 57/45/53
f 36/46/54 40/47/54 44/48/54
f 51/49/55 34/50/55 44/48/55
f 50/51/56 44/48/56 42/52/56
f 49/53/57 42/52/57 40/47/57
f 48/54/58 40/47/58 38/55/58
f 47/56/59 38/55/59 36/46/59
f 46/57/60 36/46/60 34/50/60
f 51/49/61 52/36/61 46/57/61
f 50/51/62 57/45/62 51/49/62
f 55/40/63 50/51/63 49/53/63
f 54/38/64 49/53/64 48/54/64
f 53/35/65 48/54/65 47/56/65
f 52/36/66 47/56/66 46/57/66
f 35/34/67 37/37/67 53/35/67
f 37/37/68 39/43/68 54/38/68
f 54/38/69 39/43/69 41/39/69
f 55/40/70 41/39/70 43/41/70
f 39/43/51 37/37/51 35/34/51
f 35/34/51 45/44/51 39/43/51
f 45/44/51 43/41/51 39/43/51
f 56/42/71 43/41/71 45/44/71
f 45/44/72 35/34/72 52/36/72
f 44/48/54 34/50/54 36/46/54
f 36/46/54 38/55/54 40/47/54
f 40/47/54 42/52/54 44/48/54
f 51/49/55 46/57/55 34/50/55
f 50/51/56 51/49/56 44/48/56
f 49/53/57 50/51/57 42/52/57
f 48/54/58 49/53/58 40/47/58
f 47/56/59 48/54/59 38/55/59
f 46/57/60 47/56/60 36/46/60
f 51/49/73 57/45/73 52/36/73
f 50/51/74 56/42/74 57/45/74
f 55/40/75 56/42/75 50/51/75
f 54/38/76 55/40/76 49/53/76
f 53/35/77 54/38/77 48/54/77
f 52/36/78 53/35/78 47/56/78
o Circle
v 0.430651 0.430481 -0.079229
v 0.285560 0.449569 -0.282835
v 0.435681 0.432123 -0.060332
v 0.269607 0.453972 -0.293381
v 0.166558 0.660741 -0.023841
v 0.166558 0.660741 -0.023841
v 0.280835 0.573733 -0.154000
v 0.203841 0.594981 -0.204902
v 0.343232 0.576643 -0.009297
v 0.318958 0.568718 -0.100503
v 0.264065 0.626192 -0.083933
v 0.284907 0.632996 -0.005624
v 0.252195 0.627754 -0.100591
v 0.186088 0.645997 -0.144295
v 0.215142 0.652793 -0.062618
v 0.173960 0.664158 -0.089844
v 0.218347 0.652372 -0.058121
v 0.231331 0.656611 -0.009337
v -0.161821 0.647596 -0.195383
v 0.020536 0.546689 -0.334793
v -0.170661 0.654321 -0.179205
v 0.038067 0.538821 -0.338775
v 0.158604 0.662936 -0.029100
v 0.149863 0.666859 -0.027114
v 0.149863 0.666859 -0.027114
v 0.058391 0.655249 -0.197610
v 0.143003 0.617275 -0.216830
v -0.032188 0.714218 -0.082898
v 0.010477 0.681763 -0.160980
v 0.079579 0.693798 -0.120102
v 0.042947 0.721664 -0.053061
v 0.094498 0.685543 -0.131507
v 0.167145 0.652939 -0.148009
v 0.123589 0.686344 -0.080567
v 0.168846 0.666032 -0.090847
v 0.119561 0.688572 -0.077488
v 0.096741 0.705932 -0.035723
v 0.400491 0.496702 0.198394
v 0.218134 0.597610 0.337803
v 0.409331 0.489978 0.182216
v 0.200603 0.605478 0.341785
v 0.164659 0.664912 -0.006352
v 0.169066 0.661559 -0.014419
v 0.164659 0.664912 -0.006352
v 0.245729 0.650813 0.169146
v 0.161117 0.688787 0.188365
v 0.336308 0.591844 0.054433
v 0.293643 0.624299 0.132516
v 0.246119 0.665596 0.081260
v 0.282751 0.637730 0.014219
v 0.231200 0.673851 0.092666
v 0.158553 0.706455 0.109167
v 0.203900 0.677477 0.040864
v 0.158643 0.697788 0.051144
v 0.207928 0.675248 0.037785
v 0.230748 0.657889 -0.003980
v -0.191981 0.713818 0.082240
v -0.046890 0.694730 0.285845
v -0.197011 0.712176 0.063343
v -0.030937 0.690327 0.296392
v 0.155917 0.668835 -0.004367
v 0.147963 0.671030 -0.009626
v 0.145456 0.670212 -0.019048
v 0.147963 0.671030 -0.009626
v 0.023285 0.732329 0.125536
v 0.100279 0.711081 0.176438
v -0.039112 0.729419 -0.019168
v -0.014838 0.737344 0.072038
v 0.061633 0.733202 0.045092
v 0.040791 0.726397 -0.033217
v 0.073503 0.731640 0.061749
v 0.139610 0.713397 0.105454
v 0.112347 0.711027 0.022915
v 0.153529 0.699662 0.050141
v 0.109142 0.711449 0.018418
v 0.096159 0.707210 -0.030366
vt 0.730142 0.824704
vt 0.730142 0.824704
vt 0.730142 0.824704
vt 0.730142 0.824704
vt 0.730142 0.824704
vt 0.730142 0.824704
vt 0.730142 0.824704
vt 0.730142 0.824704
vt 0.730142 0.824704
vt 0.730142 0.824704
vt 0.730142 0.824704
vt 0.730142 0.824704
vt 0.730142 0.824704
vt 0.730142 0.824704
vt 0.730142 0.824704
vt 0.730142 0.824704
vt 0.730142 0.824704
vt 0.730142 0.824704
vt 0.730142 0.824704
vt 0.730142 0.824704
vt 0.730142 0.824704
vt 0.730142 0.824704
vt 0.730142 0.824704
vt 0.730142 0.824704
vt 0.730142 0.824704
vt 0.730142 0.824704
vt 0.730142 0.824704
vt 0.730142 0.824704
vt 0.730142 0.824704
vt 0.730142 0.824704
vt 0.730142 0.824704
vt 0.730142 0.824704
vt 0.730142 0.824704
vt 0.730142 0.824704
vt 0.730142 0.824704
vt 0.730142 0.824704
vt 0.730142 0.824704
vt 0.730142 0.824704
vt 0.730142 0.824704
vt 0.730142 0.824704
vt 0.730142 0.824704
vt 0.730142 0.824704
vt 0.730142 0.824704
vt 0.730142 0.824704
vt 0.730142 0.824704
vt 0.730142 0.824704
vt 0.730142 0.824704
vt 0.730142 0.824704
vt 0.730142 0.824704
vt 0.730142 0.824704
vt 0.730142 0.824704
vt 0.730142 0.824704
vt 0.730142 0.824704
vt 0.730142 0.824704
vt 0.730142 0.824704
vt 0.730142 0.824704
vt 0.730142 0.824704
vt 0.730142 0.824704
vt 0.730142 0.824704
vt 0.730142 0.824704
vt 0.730142 0.824704
vt 0.730142 0.824704
vt 0.730142 0.824704
vt 0.730142 0.824704
vt 0.730142 0.824704
vt 0.730142 0.824704
vt 0.730142 0.824704
vt 0.730142 0.824704
vt 0.730142 0.824704
vt 0.730142 0.824704
vt 0.730142 0.824704
vt 0.730142 0.824704
vt 0.730142 0.824704
vt 0.730142 0.824704
vt 0.730142 0.824704
vt 0.730142 0.824704
vn 0.2189 0.9729 0.0749
vn 0.0876 0.9901 -0.1094
vn 0.5464 0.6130 -0.5707
vn 0.7708 0.5834 -0.2558
vn 0.6669 0.7058 -0.2388
vn 0.5069 0.7269 -0.4634
vn 0.3881 0.8968 -0.2127
vn 0.4070 0.8943 -0.1860
vn 0.4285 0.8961 0.1160
vn 0.5936 0.8047 -0.0102
vn 0.1884 0.7442 -0.6409
vn -0.0936 0.9002 -0.4253
vn 0.0505 0.9317 -0.3597
vn 0.2516 0.8204 -0.5134
vn 0.3578 0.9079 -0.2186
vn 0.3339 0.9211 -0.2004
vn 0.2765 0.8464 -0.4551
vn 0.1115 0.9378 -0.3289
vn 0.4481 0.8289 0.3348
vn 0.7301 0.6729 0.1192
vn 0.6379 0.7696 0.0286
vn 0.4368 0.8809 0.1824
vn 0.3798 0.9150 -0.1361
vn 0.4036 0.9018 -0.1543
vn 0.4861 0.7696 -0.4140
vn 0.6174 0.7524 -0.2297
vn 0.0900 0.9601 0.2646
vn -0.1343 0.9897 -0.0502
vn 0.0214 0.9955 -0.0922
vn 0.1814 0.9745 0.1323
vn 0.3495 0.9261 -0.1420
vn 0.3305 0.9286 -0.1687
vn 0.5464 0.6129 -0.5707
vn 0.5935 0.8047 -0.0102
vn 0.3305 0.9286 -0.1686
usemtl Material
s off
f 72/58/79 80/59/79 62/60/79
f 75/61/80 63/62/80 100/63/80
f 59/64/81 65/65/81 64/66/81
f 58/67/82 66/68/82 60/69/82
f 67/70/83 69/71/83 66/68/83
f 64/66/84 71/72/84 70/73/84
f 70/73/85 73/74/85 72/58/85
f 68/75/86 75/61/86 69/71/86
f 81/76/87 92/77/87 91/78/87
f 120/79/88 93/80/88 94/81/88
f 83/82/89 79/83/89 77/84/89
f 85/85/90 76/86/90 78/87/90
f 85/85/91 87/88/91 86/89/91
f 83/82/92 90/90/92 84/91/92
f 89/92/93 92/77/93 90/90/93
f 94/81/94 87/88/94 88/93/94
f 99/94/95 111/95/95 110/96/95
f 100/63/96 112/97/96 113/98/96
f 102/99/97 98/100/97 96/101/97
f 104/102/98 95/103/98 97/104/98
f 104/102/99 106/105/99 105/106/99
f 102/99/100 109/107/100 103/108/100
f 108/109/101 111/95/101 109/107/101
f 113/98/102 106/105/102 107/110/102
f 130/111/103 118/112/103 119/113/103
f 133/114/104 121/115/104 120/79/104
f 115/116/105 123/117/105 122/118/105
f 114/119/106 124/120/106 116/121/106
f 125/122/107 127/123/107 124/120/107
f 122/118/108 129/124/108 128/125/108
f 128/125/109 131/126/109 130/111/109
f 126/127/110 133/114/110 127/123/110
f 72/58/79 73/74/79 80/59/79
f 75/61/80 74/128/80 63/62/80
f 59/64/111 61/129/111 65/65/111
f 58/67/82 67/70/82 66/68/82
f 67/70/83 68/75/83 69/71/83
f 64/66/84 65/65/84 71/72/84
f 70/73/85 71/72/85 73/74/85
f 68/75/86 74/128/86 75/61/86
f 81/76/87 80/59/87 92/77/87
f 120/79/112 82/130/112 93/80/112
f 83/82/89 84/91/89 79/83/89
f 85/85/90 86/89/90 76/86/90
f 85/85/91 88/93/91 87/88/91
f 83/82/92 89/92/92 90/90/92
f 89/92/93 91/78/93 92/77/93
f 94/81/94 93/80/94 87/88/94
f 99/94/95 118/112/95 111/95/95
f 100/63/96 101/131/96 112/97/96
f 102/99/97 103/108/97 98/100/97
f 104/102/98 105/106/98 95/103/98
f 104/102/99 107/110/99 106/105/99
f 102/99/100 108/109/100 109/107/100
f 108/109/101 110/96/101 111/95/101
f 113/98/102 112/97/102 106/105/102
f 130/111/103 131/126/103 118/112/103
f 133/114/104 132/132/104 121/115/104
f 115/116/105 117/133/105 123/117/105
f 114/119/106 125/122/106 124/120/106
f 125/122/107 126/127/107 127/123/107
f 122/118/108 123/117/108 129/124/108
f 128/125/109 129/124/109 131/126/109
f 126/127/113 132/132/113 133/114/113
o Cube_Cube.001
v 0.194692 0.600773 0.020237
v 0.158390 0.616641 0.022291
v 0.189847 0.594725 -0.018671
v 0.153544 0.610593 -0.016617
v 0.209941 0.636627 0.012764
v 0.173639 0.652495 0.014818
v 0.205096 0.630578 -0.026144
v 0.168794 0.646447 -0.024090
v 0.145439 0.649026 0.058154
v 0.149790 0.679757 0.043313
v 0.118081 0.643223 0.038117
v 0.122433 0.673954 0.023276
v 0.165840 0.634690 0.034450
v 0.170192 0.665421 0.019610
v 0.138483 0.628887 0.014413
v 0.142834 0.659618 -0.000427
v 0.109852 0.673869 -0.062783
v 0.117499 0.643331 -0.076657
v 0.098721 0.658135 -0.034286
v 0.106368 0.627596 -0.048160
v 0.141493 0.675715 -0.049405
v 0.149141 0.645176 -0.063279
v 0.130362 0.659980 -0.020907
v 0.138010 0.629442 -0.034782
vt 0.961958 0.134154
vt 0.961958 0.134154
vt 0.961958 0.134154
vt 0.961958 0.134154
vt 0.961958 0.134154
vt 0.961958 0.134154
vt 0.961958 0.134154
vt 0.961958 0.134154
vt 0.961958 0.134154
vt 0.961958 0.134154
vt 0.961958 0.134154
vt 0.961958 0.134154
vt 0.961958 0.134154
vt 0.961958 0.134154
vt 0.961958 0.134154
vt 0.961958 0.134154
vt 0.961958 0.134154
vt 0.961958 0.134154
vt 0.961958 0.134154
vt 0.961958 0.134154
vt 0.961958 0.134154
vt 0.961958 0.134154
vt 0.961958 0.134154
vt 0.961958 0.134154
vn -0.3844 -0.9038 0.1884
vn -0.1221 -0.1525 -0.9807
vn 0.3844 0.9038 -0.1884
vn 0.1221 0.1525 0.9807
vn 0.9151 -0.4000 -0.0518
vn -0.9151 0.4000 0.0518
vn -0.5930 0.4167 0.6890
vn -0.7952 -0.1687 -0.5824
vn 0.5930 -0.4167 -0.6890
vn 0.7952 0.1687 0.5824
vn -0.1265 -0.8933 0.4314
vn 0.1265 0.8933 -0.4314
vn -0.9197 -0.0536 -0.3889
vn -0.3235 -0.4574 0.8283
vn 0.9197 0.0536 0.3889
vn 0.3235 0.4574 -0.8283
vn -0.2223 0.8877 0.4033
vn 0.2223 -0.8877 -0.4033
usemtl Material
s off
f 135/134/114 136/135/114 134/136/114
f 137/137/115 140/138/115 136/135/115
f 140/138/116 139/139/116 138/140/116
f 138/140/117 135/134/117 134/136/117
f 140/138/118 134/136/118 136/135/118
f 137/137/119 139/139/119 141/141/119
f 143/142/120 144/143/120 142/144/120
f 145/145/121 148/146/121 144/143/121
f 149/147/122 146/148/122 148/146/122
f 147/149/123 142/144/123 146/148/123
f 148/146/124 142/144/124 144/143/124
f 145/145/125 147/149/125 149/147/125
f 151/150/126 152/151/126 150/152/126
f 153/153/127 156/154/127 152/151/127
f 157/155/128 154/156/128 156/154/128
f 155/157/129 150/152/129 154/156/129
f 156/154/130 150/152/130 152/151/130
f 153/153/131 155/157/131 157/155/131
f 135/134/114 137/137/114 136/135/114
f 137/137/115 141/141/115 140/138/115
f 140/138/116 141/141/116 139/139/116
f 138/140/117 139/139/117 135/134/117
f 140/138/118 138/140/118 134/136/118
f 137/137/119 135/134/119 139/139/119
f 143/142/120 145/145/120 144/143/120
f 145/145/121 149/147/121 148/146/121
f 149/147/122 147/149/122 146/148/122
f 147/149/123 143/142/123 142/144/123
f 148/146/124 146/148/124 142/144/124
f 145/145/125 143/142/125 147/149/125
f 151/150/126 153/153/126 152/151/126
f 153/153/127 157/155/127 156/154/127
f 157/155/128 155/157/128 154/156/128
f 155/157/129 151/150/129 150/152/129
f 156/154/130 154/156/130 150/152/130
f 153/153/131 151/150/131 155/157/131
o Cube.001_Cube.002
v 0.237724 0.087071 0.014496
v 0.244888 0.171618 0.005810
v 0.204750 0.081802 -0.063988
v 0.211913 0.166349 -0.072674
v 0.367495 0.070588 -0.038919
v 0.374659 0.155135 -0.047605
v 0.334521 0.065319 -0.117403
v 0.341684 0.149865 -0.126089
v 0.203459 0.239463 -0.115777
v 0.211913 0.166349 -0.072674
v 0.333230 0.222979 -0.169192
v 0.341684 0.149865 -0.126089
v 0.243021 0.149592 0.008073
v 0.210047 0.144322 -0.070411
v 0.372792 0.133108 -0.045342
v 0.339818 0.127839 -0.123826
vt 0.149226 0.367908
vt 0.149226 0.367908
vt 0.149226 0.367908
vt 0.149226 0.367908
vt 0.149226 0.367908
vt 0.149226 0.367908
vt 0.149226 0.367908
vt 0.149226 0.367908
vt 0.149226 0.367908
vt 0.149226 0.367908
vt 0.149226 0.367908
vt 0.594539 0.891346
vt 0.594539 0.891346
vt 0.594539 0.891346
vt 0.149226 0.367908
vt 0.594539 0.891346
vn -0.9184 0.1167 0.3780
vn -0.3866 -0.0618 -0.9202
vn 0.9184 -0.1167 -0.3780
vn 0.3866 0.0618 0.9202
vn -0.0840 -0.9912 0.1018
vn -0.3830 -0.5016 -0.7757
usemtl Material
s off
f 159/158/132 160/159/132 158/160/132
f 161/161/133 164/162/133 160/159/133
f 165/163/134 162/164/134 164/162/134
f 163/165/135 158/160/135 162/164/135
f 164/162/136 158/160/136 160/159/136
f 169/166/137 166/167/137 168/168/137
f 173/169/136 170/170/136 171/171/136
f 159/158/132 161/161/132 160/159/132
f 161/161/133 165/163/133 164/162/133
f 165/163/134 163/165/134 162/164/134
f 163/165/135 159/158/135 158/160/135
f 164/162/136 162/164/136 158/160/136
f 169/166/137 167/172/137 166/167/137
f 173/169/136 172/173/136 170/170/136
